<mxfile host="app.diagrams.net" agent="Mozilla/5.0 (Windows NT 10.0; Win64; x64) AppleWebKit/537.36 (KHTML, like Gecko) Chrome/137.0.0.0 Safari/537.36" version="27.1.4">
  <diagram name="Page-1" id="-3GgCUEVcQodJSt-GE02">
    <mxGraphModel dx="929" dy="934" grid="1" gridSize="10" guides="1" tooltips="1" connect="1" arrows="1" fold="1" page="1" pageScale="1" pageWidth="1654" pageHeight="2336" math="0" shadow="0">
      <root>
        <mxCell id="0" />
        <mxCell id="1" parent="0" />
        <mxCell id="wGPzXmnyMwY1yzYg5T23-3" value="BEGIN" style="text;html=1;align=center;verticalAlign=middle;resizable=0;points=[];autosize=1;strokeColor=none;fillColor=none;fontSize=16;" vertex="1" parent="1">
          <mxGeometry x="80" y="81" width="70" height="30" as="geometry" />
        </mxCell>
        <mxCell id="wGPzXmnyMwY1yzYg5T23-4" value="input" style="text;html=1;align=center;verticalAlign=middle;resizable=0;points=[];autosize=1;strokeColor=none;fillColor=none;fontSize=16;" vertex="1" parent="1">
          <mxGeometry x="110" y="111" width="60" height="30" as="geometry" />
        </mxCell>
        <mxCell id="wGPzXmnyMwY1yzYg5T23-5" value="N is only a number" style="text;html=1;align=center;verticalAlign=middle;resizable=0;points=[];autosize=1;strokeColor=none;fillColor=none;fontSize=16;" vertex="1" parent="1">
          <mxGeometry x="140" y="141" width="160" height="30" as="geometry" />
        </mxCell>
        <mxCell id="wGPzXmnyMwY1yzYg5T23-6" value="N&amp;gt;=0,N&amp;lt;=100" style="text;html=1;align=center;verticalAlign=middle;resizable=0;points=[];autosize=1;strokeColor=none;fillColor=none;fontSize=16;" vertex="1" parent="1">
          <mxGeometry x="150" y="171" width="120" height="30" as="geometry" />
        </mxCell>
        <mxCell id="wGPzXmnyMwY1yzYg5T23-8" value="IF" style="text;html=1;align=center;verticalAlign=middle;resizable=0;points=[];autosize=1;strokeColor=none;fillColor=none;fontSize=16;" vertex="1" parent="1">
          <mxGeometry x="94" y="201" width="40" height="30" as="geometry" />
        </mxCell>
        <mxCell id="wGPzXmnyMwY1yzYg5T23-9" value="N&amp;gt;=75" style="text;html=1;align=center;verticalAlign=middle;resizable=0;points=[];autosize=1;strokeColor=none;fillColor=none;fontSize=16;" vertex="1" parent="1">
          <mxGeometry x="160" y="241" width="70" height="30" as="geometry" />
        </mxCell>
        <mxCell id="wGPzXmnyMwY1yzYg5T23-10" value="then" style="text;html=1;align=center;verticalAlign=middle;resizable=0;points=[];autosize=1;strokeColor=none;fillColor=none;fontSize=16;" vertex="1" parent="1">
          <mxGeometry x="154" y="271" width="50" height="30" as="geometry" />
        </mxCell>
        <mxCell id="wGPzXmnyMwY1yzYg5T23-11" value="display A" style="text;html=1;align=center;verticalAlign=middle;resizable=0;points=[];autosize=1;strokeColor=none;fillColor=none;fontSize=16;" vertex="1" parent="1">
          <mxGeometry x="199" y="271" width="90" height="30" as="geometry" />
        </mxCell>
        <mxCell id="wGPzXmnyMwY1yzYg5T23-12" value="eles" style="text;html=1;align=center;verticalAlign=middle;resizable=0;points=[];autosize=1;strokeColor=none;fillColor=none;fontSize=16;" vertex="1" parent="1">
          <mxGeometry x="105" y="301" width="50" height="30" as="geometry" />
        </mxCell>
        <mxCell id="wGPzXmnyMwY1yzYg5T23-13" value="IF" style="text;html=1;align=center;verticalAlign=middle;resizable=0;points=[];autosize=1;strokeColor=none;fillColor=none;fontSize=16;" vertex="1" parent="1">
          <mxGeometry x="154" y="331" width="40" height="30" as="geometry" />
        </mxCell>
        <mxCell id="wGPzXmnyMwY1yzYg5T23-14" value="N&amp;lt;=60,N&amp;lt;75" style="text;html=1;align=center;verticalAlign=middle;resizable=0;points=[];autosize=1;strokeColor=none;fillColor=none;fontSize=16;" vertex="1" parent="1">
          <mxGeometry x="185" y="350" width="110" height="30" as="geometry" />
        </mxCell>
        <mxCell id="wGPzXmnyMwY1yzYg5T23-15" value="then display B" style="text;html=1;align=center;verticalAlign=middle;resizable=0;points=[];autosize=1;strokeColor=none;fillColor=none;fontSize=16;" vertex="1" parent="1">
          <mxGeometry x="204" y="370" width="120" height="30" as="geometry" />
        </mxCell>
        <mxCell id="wGPzXmnyMwY1yzYg5T23-16" value="eles" style="text;html=1;align=center;verticalAlign=middle;resizable=0;points=[];autosize=1;strokeColor=none;fillColor=none;fontSize=16;" vertex="1" parent="1">
          <mxGeometry x="155" y="390" width="50" height="30" as="geometry" />
        </mxCell>
        <mxCell id="wGPzXmnyMwY1yzYg5T23-17" value="IF" style="text;html=1;align=center;verticalAlign=middle;resizable=0;points=[];autosize=1;strokeColor=none;fillColor=none;fontSize=16;" vertex="1" parent="1">
          <mxGeometry x="185" y="420" width="40" height="30" as="geometry" />
        </mxCell>
        <mxCell id="wGPzXmnyMwY1yzYg5T23-18" value="N&amp;lt;=45,N&amp;lt;60" style="text;html=1;align=center;verticalAlign=middle;resizable=0;points=[];autosize=1;strokeColor=none;fillColor=none;fontSize=16;" vertex="1" parent="1">
          <mxGeometry x="209" y="440" width="110" height="30" as="geometry" />
        </mxCell>
        <mxCell id="wGPzXmnyMwY1yzYg5T23-19" value="then display C" style="text;html=1;align=center;verticalAlign=middle;resizable=0;points=[];autosize=1;strokeColor=none;fillColor=none;fontSize=16;" vertex="1" parent="1">
          <mxGeometry x="209" y="460" width="120" height="30" as="geometry" />
        </mxCell>
        <mxCell id="wGPzXmnyMwY1yzYg5T23-20" value="eles" style="text;html=1;align=center;verticalAlign=middle;resizable=0;points=[];autosize=1;strokeColor=none;fillColor=none;fontSize=16;" vertex="1" parent="1">
          <mxGeometry x="175" y="480" width="50" height="30" as="geometry" />
        </mxCell>
        <mxCell id="wGPzXmnyMwY1yzYg5T23-21" value="IF" style="text;html=1;align=center;verticalAlign=middle;resizable=0;points=[];autosize=1;strokeColor=none;fillColor=none;fontSize=16;" vertex="1" parent="1">
          <mxGeometry x="209" y="510" width="40" height="30" as="geometry" />
        </mxCell>
        <mxCell id="wGPzXmnyMwY1yzYg5T23-22" value="N&amp;lt;=35,N&amp;lt;45" style="text;html=1;align=center;verticalAlign=middle;resizable=0;points=[];autosize=1;strokeColor=none;fillColor=none;fontSize=16;" vertex="1" parent="1">
          <mxGeometry x="235" y="520" width="110" height="30" as="geometry" />
        </mxCell>
        <mxCell id="wGPzXmnyMwY1yzYg5T23-23" value="then display D" style="text;html=1;align=center;verticalAlign=middle;resizable=0;points=[];autosize=1;strokeColor=none;fillColor=none;fontSize=16;" vertex="1" parent="1">
          <mxGeometry x="235" y="540" width="120" height="30" as="geometry" />
        </mxCell>
        <mxCell id="wGPzXmnyMwY1yzYg5T23-25" value="eles" style="text;html=1;align=center;verticalAlign=middle;resizable=0;points=[];autosize=1;strokeColor=none;fillColor=none;fontSize=16;" vertex="1" parent="1">
          <mxGeometry x="219" y="560" width="50" height="30" as="geometry" />
        </mxCell>
        <mxCell id="wGPzXmnyMwY1yzYg5T23-26" value="IF" style="text;html=1;align=center;verticalAlign=middle;resizable=0;points=[];autosize=1;strokeColor=none;fillColor=none;fontSize=16;" vertex="1" parent="1">
          <mxGeometry x="235" y="580" width="40" height="30" as="geometry" />
        </mxCell>
        <mxCell id="wGPzXmnyMwY1yzYg5T23-27" value="N&amp;lt;35" style="text;html=1;align=center;verticalAlign=middle;resizable=0;points=[];autosize=1;strokeColor=none;fillColor=none;fontSize=16;" vertex="1" parent="1">
          <mxGeometry x="264" y="600" width="60" height="30" as="geometry" />
        </mxCell>
        <mxCell id="wGPzXmnyMwY1yzYg5T23-28" value="then display E" style="text;html=1;align=center;verticalAlign=middle;resizable=0;points=[];autosize=1;strokeColor=none;fillColor=none;fontSize=16;" vertex="1" parent="1">
          <mxGeometry x="250" y="630" width="120" height="30" as="geometry" />
        </mxCell>
        <mxCell id="wGPzXmnyMwY1yzYg5T23-29" value="END IF" style="text;html=1;align=center;verticalAlign=middle;resizable=0;points=[];autosize=1;strokeColor=none;fillColor=none;fontSize=16;" vertex="1" parent="1">
          <mxGeometry x="94" y="651" width="80" height="30" as="geometry" />
        </mxCell>
        <mxCell id="wGPzXmnyMwY1yzYg5T23-30" value="END" style="text;html=1;align=center;verticalAlign=middle;resizable=0;points=[];autosize=1;strokeColor=none;fillColor=none;fontSize=16;" vertex="1" parent="1">
          <mxGeometry x="94" y="701" width="60" height="30" as="geometry" />
        </mxCell>
        <mxCell id="wGPzXmnyMwY1yzYg5T23-33" value="" style="edgeStyle=none;curved=1;rounded=0;orthogonalLoop=1;jettySize=auto;html=1;fontSize=12;startSize=8;endSize=8;" edge="1" parent="1" source="wGPzXmnyMwY1yzYg5T23-31" target="wGPzXmnyMwY1yzYg5T23-32">
          <mxGeometry relative="1" as="geometry" />
        </mxCell>
        <mxCell id="wGPzXmnyMwY1yzYg5T23-31" value="BEGIN" style="ellipse;whiteSpace=wrap;html=1;" vertex="1" parent="1">
          <mxGeometry x="580" y="40" width="90" height="80" as="geometry" />
        </mxCell>
        <mxCell id="wGPzXmnyMwY1yzYg5T23-36" value="" style="edgeStyle=none;curved=1;rounded=0;orthogonalLoop=1;jettySize=auto;html=1;fontSize=12;startSize=8;endSize=8;" edge="1" parent="1" source="wGPzXmnyMwY1yzYg5T23-32" target="wGPzXmnyMwY1yzYg5T23-34">
          <mxGeometry relative="1" as="geometry" />
        </mxCell>
        <mxCell id="wGPzXmnyMwY1yzYg5T23-32" value="input&amp;nbsp;&lt;div&gt;N is only a nums&lt;/div&gt;" style="shape=parallelogram;perimeter=parallelogramPerimeter;whiteSpace=wrap;html=1;fixedSize=1;" vertex="1" parent="1">
          <mxGeometry x="555" y="156" width="140" height="60" as="geometry" />
        </mxCell>
        <mxCell id="wGPzXmnyMwY1yzYg5T23-37" style="edgeStyle=none;curved=1;rounded=0;orthogonalLoop=1;jettySize=auto;html=1;entryX=1;entryY=0.75;entryDx=0;entryDy=0;fontSize=12;startSize=8;endSize=8;" edge="1" parent="1" source="wGPzXmnyMwY1yzYg5T23-34" target="wGPzXmnyMwY1yzYg5T23-32">
          <mxGeometry relative="1" as="geometry">
            <Array as="points">
              <mxPoint x="960" y="280" />
            </Array>
          </mxGeometry>
        </mxCell>
        <mxCell id="wGPzXmnyMwY1yzYg5T23-45" style="edgeStyle=none;curved=1;rounded=0;orthogonalLoop=1;jettySize=auto;html=1;fontSize=12;startSize=8;endSize=8;" edge="1" parent="1" source="wGPzXmnyMwY1yzYg5T23-34" target="wGPzXmnyMwY1yzYg5T23-39">
          <mxGeometry relative="1" as="geometry" />
        </mxCell>
        <mxCell id="wGPzXmnyMwY1yzYg5T23-46" style="edgeStyle=none;curved=1;rounded=0;orthogonalLoop=1;jettySize=auto;html=1;fontSize=12;startSize=8;endSize=8;" edge="1" parent="1" source="wGPzXmnyMwY1yzYg5T23-34" target="wGPzXmnyMwY1yzYg5T23-40">
          <mxGeometry relative="1" as="geometry" />
        </mxCell>
        <mxCell id="wGPzXmnyMwY1yzYg5T23-48" style="edgeStyle=none;curved=1;rounded=0;orthogonalLoop=1;jettySize=auto;html=1;fontSize=12;startSize=8;endSize=8;" edge="1" parent="1" source="wGPzXmnyMwY1yzYg5T23-34" target="wGPzXmnyMwY1yzYg5T23-42">
          <mxGeometry relative="1" as="geometry" />
        </mxCell>
        <mxCell id="wGPzXmnyMwY1yzYg5T23-34" value="N&amp;gt;=0,N&amp;lt;=100" style="rhombus;whiteSpace=wrap;html=1;" vertex="1" parent="1">
          <mxGeometry x="550" y="231" width="150" height="80" as="geometry" />
        </mxCell>
        <mxCell id="wGPzXmnyMwY1yzYg5T23-38" value="F" style="text;html=1;align=center;verticalAlign=middle;resizable=0;points=[];autosize=1;strokeColor=none;fillColor=none;fontSize=16;" vertex="1" parent="1">
          <mxGeometry x="809" y="221" width="30" height="30" as="geometry" />
        </mxCell>
        <mxCell id="wGPzXmnyMwY1yzYg5T23-39" value="N&amp;gt;=75" style="rhombus;whiteSpace=wrap;html=1;" vertex="1" parent="1">
          <mxGeometry x="457" y="277" width="70" height="80" as="geometry" />
        </mxCell>
        <mxCell id="wGPzXmnyMwY1yzYg5T23-40" value="N&amp;gt;=60&lt;div&gt;N&amp;lt;75&lt;/div&gt;" style="rhombus;whiteSpace=wrap;html=1;" vertex="1" parent="1">
          <mxGeometry x="510" y="331" width="80" height="80" as="geometry" />
        </mxCell>
        <mxCell id="wGPzXmnyMwY1yzYg5T23-41" value="N&amp;lt;=45&lt;div&gt;N&amp;lt;60&lt;/div&gt;" style="rhombus;whiteSpace=wrap;html=1;" vertex="1" parent="1">
          <mxGeometry x="595" y="340" width="60" height="95" as="geometry" />
        </mxCell>
        <mxCell id="wGPzXmnyMwY1yzYg5T23-42" value="N&amp;lt;=35&lt;div&gt;N&amp;lt;45&lt;/div&gt;" style="rhombus;whiteSpace=wrap;html=1;" vertex="1" parent="1">
          <mxGeometry x="663" y="340" width="80" height="80" as="geometry" />
        </mxCell>
        <mxCell id="wGPzXmnyMwY1yzYg5T23-60" style="edgeStyle=none;curved=1;rounded=0;orthogonalLoop=1;jettySize=auto;html=1;fontSize=12;startSize=8;endSize=8;" edge="1" parent="1" source="wGPzXmnyMwY1yzYg5T23-43" target="wGPzXmnyMwY1yzYg5T23-55">
          <mxGeometry relative="1" as="geometry" />
        </mxCell>
        <mxCell id="wGPzXmnyMwY1yzYg5T23-43" value="N&amp;lt;35" style="rhombus;whiteSpace=wrap;html=1;" vertex="1" parent="1">
          <mxGeometry x="717" y="283" width="70" height="80" as="geometry" />
        </mxCell>
        <mxCell id="wGPzXmnyMwY1yzYg5T23-44" style="edgeStyle=none;curved=1;rounded=0;orthogonalLoop=1;jettySize=auto;html=1;exitX=0;exitY=0.5;exitDx=0;exitDy=0;fontSize=12;startSize=8;endSize=8;" edge="1" parent="1" source="wGPzXmnyMwY1yzYg5T23-39" target="wGPzXmnyMwY1yzYg5T23-39">
          <mxGeometry relative="1" as="geometry" />
        </mxCell>
        <mxCell id="wGPzXmnyMwY1yzYg5T23-47" style="edgeStyle=none;curved=1;rounded=0;orthogonalLoop=1;jettySize=auto;html=1;entryX=0.479;entryY=0.053;entryDx=0;entryDy=0;entryPerimeter=0;fontSize=12;startSize=8;endSize=8;" edge="1" parent="1" source="wGPzXmnyMwY1yzYg5T23-34" target="wGPzXmnyMwY1yzYg5T23-41">
          <mxGeometry relative="1" as="geometry" />
        </mxCell>
        <mxCell id="wGPzXmnyMwY1yzYg5T23-49" style="edgeStyle=none;curved=1;rounded=0;orthogonalLoop=1;jettySize=auto;html=1;entryX=0.219;entryY=0.303;entryDx=0;entryDy=0;entryPerimeter=0;fontSize=12;startSize=8;endSize=8;" edge="1" parent="1" source="wGPzXmnyMwY1yzYg5T23-34" target="wGPzXmnyMwY1yzYg5T23-43">
          <mxGeometry relative="1" as="geometry" />
        </mxCell>
        <mxCell id="wGPzXmnyMwY1yzYg5T23-64" style="edgeStyle=none;curved=1;rounded=0;orthogonalLoop=1;jettySize=auto;html=1;entryX=0;entryY=0.5;entryDx=0;entryDy=0;fontSize=12;startSize=8;endSize=8;" edge="1" parent="1" source="wGPzXmnyMwY1yzYg5T23-50" target="wGPzXmnyMwY1yzYg5T23-63">
          <mxGeometry relative="1" as="geometry" />
        </mxCell>
        <mxCell id="wGPzXmnyMwY1yzYg5T23-50" value="display A" style="shape=parallelogram;perimeter=parallelogramPerimeter;whiteSpace=wrap;html=1;fixedSize=1;" vertex="1" parent="1">
          <mxGeometry x="430" y="422" width="80" height="60" as="geometry" />
        </mxCell>
        <mxCell id="wGPzXmnyMwY1yzYg5T23-65" style="edgeStyle=none;curved=1;rounded=0;orthogonalLoop=1;jettySize=auto;html=1;entryX=0;entryY=0;entryDx=0;entryDy=0;fontSize=12;startSize=8;endSize=8;" edge="1" parent="1" source="wGPzXmnyMwY1yzYg5T23-51" target="wGPzXmnyMwY1yzYg5T23-63">
          <mxGeometry relative="1" as="geometry" />
        </mxCell>
        <mxCell id="wGPzXmnyMwY1yzYg5T23-51" value="DisplayB" style="shape=parallelogram;perimeter=parallelogramPerimeter;whiteSpace=wrap;html=1;fixedSize=1;" vertex="1" parent="1">
          <mxGeometry x="520" y="424" width="80" height="56" as="geometry" />
        </mxCell>
        <mxCell id="wGPzXmnyMwY1yzYg5T23-52" value="DisplayC" style="shape=parallelogram;perimeter=parallelogramPerimeter;whiteSpace=wrap;html=1;fixedSize=1;" vertex="1" parent="1">
          <mxGeometry x="588" y="464" width="80" height="60" as="geometry" />
        </mxCell>
        <mxCell id="wGPzXmnyMwY1yzYg5T23-54" value="DisplayD" style="shape=parallelogram;perimeter=parallelogramPerimeter;whiteSpace=wrap;html=1;fixedSize=1;" vertex="1" parent="1">
          <mxGeometry x="672" y="428" width="78" height="60" as="geometry" />
        </mxCell>
        <mxCell id="wGPzXmnyMwY1yzYg5T23-68" style="edgeStyle=none;curved=1;rounded=0;orthogonalLoop=1;jettySize=auto;html=1;entryX=1;entryY=0.5;entryDx=0;entryDy=0;fontSize=12;startSize=8;endSize=8;" edge="1" parent="1" source="wGPzXmnyMwY1yzYg5T23-55" target="wGPzXmnyMwY1yzYg5T23-63">
          <mxGeometry relative="1" as="geometry" />
        </mxCell>
        <mxCell id="wGPzXmnyMwY1yzYg5T23-55" value="DisplayE" style="shape=parallelogram;perimeter=parallelogramPerimeter;whiteSpace=wrap;html=1;fixedSize=1;" vertex="1" parent="1">
          <mxGeometry x="769" y="425" width="81" height="60" as="geometry" />
        </mxCell>
        <mxCell id="wGPzXmnyMwY1yzYg5T23-56" style="edgeStyle=none;curved=1;rounded=0;orthogonalLoop=1;jettySize=auto;html=1;entryX=0.62;entryY=0.059;entryDx=0;entryDy=0;entryPerimeter=0;fontSize=12;startSize=8;endSize=8;" edge="1" parent="1" source="wGPzXmnyMwY1yzYg5T23-39" target="wGPzXmnyMwY1yzYg5T23-50">
          <mxGeometry relative="1" as="geometry" />
        </mxCell>
        <mxCell id="wGPzXmnyMwY1yzYg5T23-58" style="edgeStyle=none;curved=1;rounded=0;orthogonalLoop=1;jettySize=auto;html=1;entryX=0.359;entryY=0.067;entryDx=0;entryDy=0;entryPerimeter=0;fontSize=12;startSize=8;endSize=8;" edge="1" parent="1" source="wGPzXmnyMwY1yzYg5T23-40" target="wGPzXmnyMwY1yzYg5T23-51">
          <mxGeometry relative="1" as="geometry" />
        </mxCell>
        <mxCell id="wGPzXmnyMwY1yzYg5T23-59" style="edgeStyle=none;curved=1;rounded=0;orthogonalLoop=1;jettySize=auto;html=1;entryX=0.453;entryY=0.033;entryDx=0;entryDy=0;entryPerimeter=0;fontSize=12;startSize=8;endSize=8;" edge="1" parent="1">
          <mxGeometry relative="1" as="geometry">
            <mxPoint x="626.5469567036185" y="434.28268144739593" as="sourcePoint" />
            <mxPoint x="626.24" y="465.9799999999999" as="targetPoint" />
          </mxGeometry>
        </mxCell>
        <mxCell id="wGPzXmnyMwY1yzYg5T23-62" style="edgeStyle=none;curved=1;rounded=0;orthogonalLoop=1;jettySize=auto;html=1;entryX=0.396;entryY=0.015;entryDx=0;entryDy=0;entryPerimeter=0;fontSize=12;startSize=8;endSize=8;" edge="1" parent="1" source="wGPzXmnyMwY1yzYg5T23-42" target="wGPzXmnyMwY1yzYg5T23-54">
          <mxGeometry relative="1" as="geometry" />
        </mxCell>
        <mxCell id="wGPzXmnyMwY1yzYg5T23-63" value="END" style="ellipse;whiteSpace=wrap;html=1;" vertex="1" parent="1">
          <mxGeometry x="575" y="575" width="120" height="80" as="geometry" />
        </mxCell>
        <mxCell id="wGPzXmnyMwY1yzYg5T23-66" style="edgeStyle=none;curved=1;rounded=0;orthogonalLoop=1;jettySize=auto;html=1;entryX=0.443;entryY=0.058;entryDx=0;entryDy=0;entryPerimeter=0;fontSize=12;startSize=8;endSize=8;" edge="1" parent="1" source="wGPzXmnyMwY1yzYg5T23-52" target="wGPzXmnyMwY1yzYg5T23-63">
          <mxGeometry relative="1" as="geometry" />
        </mxCell>
        <mxCell id="wGPzXmnyMwY1yzYg5T23-67" style="edgeStyle=none;curved=1;rounded=0;orthogonalLoop=1;jettySize=auto;html=1;entryX=0.802;entryY=0.153;entryDx=0;entryDy=0;entryPerimeter=0;fontSize=12;startSize=8;endSize=8;" edge="1" parent="1" source="wGPzXmnyMwY1yzYg5T23-54" target="wGPzXmnyMwY1yzYg5T23-63">
          <mxGeometry relative="1" as="geometry" />
        </mxCell>
      </root>
    </mxGraphModel>
  </diagram>
</mxfile>
